PathFileType	4	(X/Y/Z)	pose_F01_0-87.trc
DataRate	CameraRate	NumFrames	NumMarkers	Units	OrigDataRate	OrigDataStartFrame	OrigNumFrames
30	30	9	21	m	30	24	87
Frame#	Time	CHip			RHip			RKnee			RAnkle			RBigToe			RSmallToe			RHeel			LHip			LKnee			LAnkle			LBigToe			LSmallToe			LHeel			Neck			Nose			RShoulder			RElbow			RWrist			LShoulder			LElbow			LWrist			
		X1	Y1	Z1	X2	Y2	Z2	X3	Y3	Z3	X4	Y4	Z4	X5	Y5	Z5	X6	Y6	Z6	X7	Y7	Z7	X8	Y8	Z8	X9	Y9	Z9	X10	Y10	Z10	X11	Y11	Z11	X12	Y12	Z12	X13	Y13	Z13	X14	Y14	Z14	X15	Y15	Z15	X16	Y16	Z16	X17	Y17	Z17	X18	Y18	Z18	X19	Y19	Z19	X20	Y20	Z20	X21	Y21	Z21	
24	0.8	-0.2004395190832916	1.8386872382452808	-0.5104642854064763	-0.2160482749505571	1.8366377622540286	-0.45306120060454297	-0.2217163829341266	1.7195509792545693	-0.450942838606154				-0.23013690471919018	1.5431238589551985	-0.5940767043332305							-0.18320106840943323	1.838950395755424	-0.5644509781545374	-0.18641931595641034	1.7190458414183376	-0.5433931289893461	-0.18738062110098352	1.5981094153311504	-0.5260322944333589	-0.20069460604188616	1.569325887300486	-0.5874549885986193	-0.18840316352811295	1.5788761781359926	-0.601289251634974	-0.19524611986847998	1.6072614604297573	-0.5205070388495587	-1.7376181951279521	1.8907903783535427	1.1762008705414446	-0.20081975978257519	2.057041819924374	-0.5666537682419028	-0.21549504796397667	1.9778561517807092	-0.4378978784190324	-0.22325096837012678	1.898232601387914	-0.3945836616907129	-0.23229356552667216	1.829852936808258	-0.3608686252507902	-1.5438356463354577	1.8910092413733521	0.8719548468009382	-0.15788372553204508	1.906442013569022	-0.6368103642719705	-0.1490526262409225	1.8445459711445997	-0.6734630449942962
25	0.8333333333333334	-0.20129277062075146	1.8357862609494393	-0.5046381533428123	-0.21472807272091274	1.83558262924622	-0.4494450029039778	-0.2217163829341266	1.7195509792545693	-0.450942838606154				-0.23013690471919018	1.5431238589551985	-0.5940767043332305							-0.18306360708061103	1.83962133333669	-0.5642927699623328	-0.1862593925132445	1.7208228198607367	-0.5435480449059742	-0.18678658710598292	1.6000169608101913	-0.5228596749669865	-0.19967622775080465	1.5690226270267478	-0.5842771810480727	-0.187829470555054	1.5786429976043046	-0.6020028706875666	-0.19524611986847998	1.6072614604297573	-0.5205070388495587	-0.19147213861463452	1.9807557719771858	-0.5085924387243184	-0.20102226418097177	2.0546490919399254	-0.5579262145025781	-0.2153365662382815	1.9781841594838931	-0.42900766439626303	-0.22094596922568058	1.8975494281547156	-0.3878144985267484	-0.23185906102491913	1.8292450712684134	-0.3603949690814361	-0.1679193102217026	1.9836958242295843	-0.5979752645921228	-0.1608621072712841	1.909382558207751	-0.6261769139265884	-0.1533149364984689	1.8460144837101298	-0.6565966486196865
26	0.8666666666666667	-0.20133096518382196	1.8379039423281238	-0.49583596767461163	-0.21416235219652918	1.8365698502660466	-0.43206005750284926	-0.2217163829341266	1.7195509792545693	-0.450942838606154				-0.23013690471919018	1.5431238589551985	-0.5940767043332305							-0.18591047182712012	1.8387989100877715	-0.5565097745732124	-0.18684726255435244	1.717269484411058	-0.5382297389882053	-0.18619255311098235	1.6019245062892324	-0.5196870555006141	-0.20060360764589294	1.568859451701998	-0.5873213762108842	-0.19001663519131748	1.576378620077559	-0.5993213387358586	-0.19524611986847998	1.6072614604297573	-0.5205070388495587	-0.19463406369684785	1.9792137016928675	-0.5007553084474105	-0.19944986915406995	2.0491611923939645	-0.542358566001333	-0.21516376606677148	1.9774905017324276	-0.4115966452283715	-0.2258822241990807	1.8952732872401163	-0.3776066626650733	-0.23291976397654832	1.8288239380926268	-0.3546860784495941	-0.1713728922638585	1.9826422500863008	-0.5899959830531167	-0.1627532544168573	1.9085700736035351	-0.6025437653583006	-0.15441582088420086	1.8427675947433404	-0.6300973932855494
27	0.9	-0.20054722231275038	1.8378434076660954	-0.47467209583776065	-0.21524413244837814	1.8346086351767263	-0.41733530506605887	-0.2217163829341266	1.7195509792545693	-0.450942838606154				-0.23013690471919018	1.5431238589551985	-0.5940767043332305							-0.18964810555073938	1.840097768794357	-0.5309411600620774	-0.1893303431555997	1.7201654538219615	-0.5270522292232565	-0.18559851911598177	1.6038320517682734	-0.5165144360342416	-0.19990078562575253	1.5670672058051878	-0.5834719811333354	-0.18988360122204262	1.5754790418808333	-0.5991263069137805	-0.19524611986847998	1.6072614604297573	-0.5205070388495587	-0.19672195698468997	1.9775854486883162	-0.48929516753514246	-0.20061279816086144	2.0452583307169974	-0.536420513125002	-0.21620268567617973	1.975677235319961	-0.40587807741330084	-0.22768078278251616	1.895450649065003	-0.36634374097767625	-0.23495156822356783	1.8261262214712453	-0.3521458370339741	-1.6894013965217498	1.8895482491011764	1.1087604297457865	-0.16640338351620498	1.908344104106448	-0.5859440682457592	-0.1611486981502223	1.8413136989798047	-0.6138960774588663
28	0.9333333333333333	-0.20087486672782398	1.8347197354498574	-0.46521484677169594	-0.2162798574948331	1.832314313171158	-0.402026222487258	-0.2217163829341266	1.7195509792545693	-0.450942838606154				-0.23013690471919018	1.5431238589551985	-0.5940767043332305							-0.1871586489607111	1.8356113320872138	-0.5205304031790742	-0.19181342375684698	1.7230614232328647	-0.5158747194583075	-0.1850044851209812	1.6057395972473145	-0.5133418165678693	-0.19991733804767886	1.5698031426454597	-0.5840127885104255	-0.18927518886825387	1.579836905676874	-0.5963818687816983	-0.19524611986847998	1.6072614604297573	-0.5205070388495587	-0.19602830375239477	1.976830566367785	-0.46897320705497164	-0.19997111953893087	2.0415382707363965	-0.5329482591820209	-0.2188644001554298	1.9752637213599118	-0.3895242427696542	-0.22692247452927508	1.893645671181491	-0.3482090158326115	-0.2385788085320643	1.8265685271443544	-0.34743027672427124	-1.704088166580892	1.889330284586714	1.1320057004578443	-0.16614651620321508	1.9033127764806053	-0.5645525665160226	-0.16258742990180308	1.8392735269924514	-0.5873059568895105
29	0.9666666666666667	-0.20170242478520709	1.8359461063044142	-0.4508447030044215	-0.21526196370583542	1.8327285193738911	-0.3896778993424953	-0.2217163829341266	1.7195509792545693	-0.450942838606154				-0.23013690471919018	1.5431238589551985	-0.5940767043332305							-0.18814493219914752	1.8376654751636634	-0.5150295331127274	-0.19397242372426335	1.7240960422174523	-0.5135507453408978	-0.1844104511259806	1.6076471427263554	-0.5101691971014969	-0.20220589684513368	1.5713150308113628	-0.581501082161917	-0.1897920655434705	1.5828352942651547	-0.5956232923098835	-0.19524611986847998	1.6072614604297573	-0.5205070388495587	-0.2008220674223262	1.9749733821535365	-0.45851511568213266	-0.1999790537754344	2.038168727449693	-0.5325011102245235	-0.21954425861778765	1.9747308140099984	-0.37521984130609687	-0.2297165324913228	1.8934025214051842	-0.34071347628355236	-0.2428769105718233	1.8284704952141448	-0.3436026852788285	-0.17686523436883292	1.9788125115456483	-0.5415042380009395	-0.17031863894873744	1.9056853151794124	-0.5511923268780053	-0.16981546911054748	1.8423751832311515	-0.5750223258853305
30	1.0	-0.20160950843830996	1.8378794960709177	-0.4422609239058075	-0.21594962297662243	1.8339255909505412	-0.38444326553141345	-0.2217163829341266	1.7195509792545693	-0.450942838606154				-0.23013690471919018	1.5431238589551985	-0.5940767043332305							-0.18722902206122374	1.8409119250311794	-0.5031755411057646	-0.19267241265906793	1.7267998839394565	-0.5108167888562534	-0.18381641713098001	1.6095546882053966	-0.5069965776351244	-0.1974933174496901	1.5772088820809782	-0.5657640245840214	-0.18840378836725322	1.587767688714307	-0.5801842760858653	-0.19524611986847998	1.6072614604297573	-0.5205070388495587	-0.20071319710327168	1.976072394202866	-0.4498793051925972	-0.19901082875781154	2.0307993983663337	-0.5276905231839026	-0.21936746177193497	1.974361789287937	-0.3665045592711025	-0.2315058846609908	1.894814900486022	-0.3385292545598671	-0.24270831858587388	1.8306938114697968	-0.34353317461817906	-0.17439175737656795	1.9775948756771429	-0.5232243150308007	-0.16984902518247127	1.9063611060636438	-0.5392121971110136	-0.16976317280161457	1.8508980219802622	-0.5550704107884755
31	1.0333333333333334	-0.20274345634910937	1.8369218580350475	-0.4364148835074984	-0.21523775705479942	1.833924048547421	-0.38109323310315063	-0.2217163829341266	1.7195509792545693	-0.450942838606154				-0.23013690471919018	1.5431238589551985	-0.5940767043332305							-0.18657558077480987	1.841814513556247	-0.4911285745976684	-0.19184226848610314	1.7276183641482408	-0.5074000046325767	-0.18322238313597944	1.6114622336844375	-0.503823958168752	-0.1928557859691822	1.583168277986656	-0.5576027617656739	-0.1818295672831516	1.5904677261588054	-0.5699505034759849	-0.19524611986847998	1.6072614604297573	-0.5205070388495587	-0.19788442100985135	1.974936760168172	-0.4399299322600547	-0.19636301429338854	2.021792186171478	-0.5255844221643966	-0.21924348660003162	1.9728960556324704	-0.36584464313573023	-0.2315387758439555	1.895130878884276	-0.3385144135441756	-0.24356138994739274	1.8323501323154503	-0.34700084494565425	-0.17546626657030945	1.9776094736917287	-0.5175525918729568	-0.16706770279506497	1.9068639543704635	-0.5293554705360757	-0.17079913934333046	1.8492808218541745	-0.5492438573042777
32	1.0666666666666667	-0.20060932696453115	1.8378441063530804	-0.43890005991949327	-0.21316783120835628	1.8350368405361752	-0.38344340948416783	-0.2217163829341266	1.7195509792545693	-0.450942838606154				-0.23013690471919018	1.5431238589551985	-0.5940767043332305							-0.18536415163561235	1.843297345146002	-0.49676464819107335	-0.1904790070191624	1.72782790455641	-0.5045769634807122	-0.18091471278368393	1.6141949860792448	-0.5024453096454523	-0.19143772047709814	1.5898719280355613	-0.5551863304788613	-0.18025409984641816	1.5959434042151297	-0.5679695196068161	-0.19524611986847998	1.6072614604297573	-0.5205070388495587	-0.19784270210940863	1.974912873657667	-0.43995006234440653	-0.19438935264129026	2.0216628752566392	-0.5277559442254675	-0.21738864892098742	1.9729289068675218	-0.36797077078104784	-0.22987819654698796	1.8956648529277866	-0.3410604963289808	-0.24009341730555445	1.8349031634840574	-0.3428855899111317	-0.17545806377707987	1.9777448663956556	-0.5175498106825416	-0.16893478325337263	1.9128113146071681	-0.5275661393571476	-0.17066418807827016	1.8545738694130243	-0.5496539174386207
